<?xml version="1.0" encoding="UTF-8" standalone="no"?>
<svg
   xmlns:dc="http://purl.org/dc/elements/1.1/"
   xmlns:cc="http://creativecommons.org/ns#"
   xmlns:rdf="http://www.w3.org/1999/02/22-rdf-syntax-ns#"
   xmlns:svg="http://www.w3.org/2000/svg"
   xmlns="http://www.w3.org/2000/svg"
   xmlns:sodipodi="http://sodipodi.sourceforge.net/DTD/sodipodi-0.dtd"
   xmlns:inkscape="http://www.inkscape.org/namespaces/inkscape"
   width="61.535973mm"
   height="20.26927mm"
   viewBox="0 0 61.535972 20.26927"
   version="1.1"
   id="svg8"
   inkscape:version="1.0.1 (3bc2e813f5, 2020-09-07)"
   sodipodi:docname="Rocket.svg"
   inkscape:export-filename="/home/fernando/Downloads/GiF_Revert/Rocket/Rocket.png"
   inkscape:export-xdpi="206.38"
   inkscape:export-ydpi="206.38">
  <defs
     id="defs2" />
  <sodipodi:namedview
     id="base"
     pagecolor="#ffffff"
     bordercolor="#666666"
     borderopacity="1.0"
     inkscape:pageopacity="0.0"
     inkscape:pageshadow="2"
     inkscape:zoom="2.4919418"
     inkscape:cx="143.34751"
     inkscape:cy="50.277782"
     inkscape:document-units="mm"
     inkscape:current-layer="layer1"
     inkscape:document-rotation="0"
     showgrid="false"
     fit-margin-top="0"
     fit-margin-left="0"
     fit-margin-right="0"
     fit-margin-bottom="0"
     inkscape:window-width="1920"
     inkscape:window-height="1039"
     inkscape:window-x="0"
     inkscape:window-y="0"
     inkscape:window-maximized="1" />
  <metadata
     id="metadata5">
    <rdf:RDF>
      <cc:Work
         rdf:about="">
        <dc:format>image/svg+xml</dc:format>
        <dc:type
           rdf:resource="http://purl.org/dc/dcmitype/StillImage" />
        <dc:title></dc:title>
      </cc:Work>
    </rdf:RDF>
  </metadata>
  <g
     inkscape:label="Layer 1"
     inkscape:groupmode="layer"
     id="layer1"
     transform="translate(-14.005963,-107.0007)">
    <rect
       style="color:#000000;overflow:visible;fill:#808080;fill-opacity:1;fill-rule:evenodd;stroke:#808080;stroke-width:0.418973;paint-order:stroke markers fill;stop-color:#000000"
       id="rect965"
       width="61.117001"
       height="19.850296"
       x="14.215449"
       y="107.21019"
       inkscape:export-xdpi="103.78"
       inkscape:export-ydpi="103.78" />
    <path
       style="color:#000000;overflow:visible;fill:#f4d7d7;fill-opacity:1;fill-rule:evenodd;stroke:none;stroke-width:0.0840224;paint-order:stroke markers fill;stop-color:#000000"
       d="m 19.347028,123.06296 c -0.32531,-0.069 -0.825852,-0.26468 -0.825852,-0.32295 0,-0.0155 0.123806,-0.069 0.275125,-0.11899 0.762805,-0.25175 2.255341,-1.58408 2.823964,-2.52084 0.362347,-0.59695 0.359632,-0.7242 -0.01862,-0.87278 -0.294024,-0.1155 -0.296627,-0.11993 -0.194259,-0.33047 0.05707,-0.11737 0.133594,-0.45227 0.170057,-0.74423 l 0.0663,-0.53082 -0.758103,-0.0847 c -1.094036,-0.12225 -2.364462,-0.49586 -2.364462,-0.69534 0,-0.0584 0.900233,-0.37483 1.063598,-0.37384 0.06882,4.2e-4 0.136391,-0.0326 0.150155,-0.0734 0.02425,-0.0719 1.328365,-0.29987 1.720471,-0.30076 0.190792,-4.2e-4 0.193018,-0.007 0.138999,-0.3946 -0.0732,-0.52554 -0.149873,-0.82429 -0.24133,-0.94028 -0.09023,-0.11445 -0.07915,-0.12631 0.203381,-0.21761 0.341942,-0.11051 0.395172,-0.26014 0.22614,-0.63569 -0.283317,-0.62947 -1.466031,-2.0166 -1.719416,-2.0166 -0.04367,0 -0.122029,-0.0682 -0.174123,-0.15167 -0.08729,-0.13978 -1.109299,-0.67418 -1.289326,-0.67418 -0.0432,0 -0.07855,-0.0328 -0.07855,-0.073 0,-0.10635 0.687447,-0.28526 1.464011,-0.38102 1.109123,-0.13676 2.555637,0.0562 3.322177,0.44309 0.175494,0.0886 0.462665,0.23341 0.638159,0.32184 0.294321,0.1483 0.68497,0.43595 1.194946,0.87989 0.112006,0.0975 0.345824,0.35545 0.519594,0.57322 0.305757,0.38318 0.325877,0.39468 0.623943,0.3569 0.169398,-0.0215 0.355427,-0.0767 0.413396,-0.12276 0.148211,-0.11771 4.822464,-0.11711 4.969568,6.4e-4 0.05796,0.0464 0.39255,0.1245 0.743537,0.17357 1.083247,0.15146 2.098662,0.37806 2.387316,0.53277 0.15164,0.0813 0.319507,0.14778 0.373037,0.14778 0.370429,0 2.107412,0.78756 2.92431,1.3259 0.696064,0.45872 1.670819,1.22879 1.794687,1.41784 0.158994,0.24266 0.07615,0.36557 -0.662945,0.98351 -0.818988,0.68475 -1.073253,0.86494 -1.523445,1.07967 -0.206463,0.0985 -0.491164,0.25742 -0.63267,0.35321 -0.141505,0.0958 -0.344214,0.19563 -0.450464,0.22185 -0.10625,0.0262 -0.406941,0.1462 -0.668203,0.26661 -0.475106,0.21898 -0.791703,0.31898 -1.777303,0.56136 -0.289048,0.0711 -0.542435,0.15121 -0.563081,0.17806 -0.02065,0.0268 -0.544312,0.12869 -1.163701,0.2263 -0.988936,0.15585 -1.38689,0.17759 -3.265869,0.17839 -1.462176,5.3e-4 -2.311445,-0.0307 -2.682069,-0.0989 l -0.542361,-0.0998 -0.187272,0.21292 c -0.102999,0.1171 -0.188339,0.24754 -0.189644,0.28986 -0.0034,0.11168 -0.613881,0.66924 -0.991807,0.90588 -0.178431,0.11174 -0.415647,0.279 -0.527147,0.37171 -0.111499,0.0927 -0.449348,0.26147 -0.750774,0.37502 -0.301427,0.11355 -0.581834,0.23227 -0.623127,0.26382 -0.266347,0.20356 -2.57535,0.29598 -3.340947,0.13373 z m 14.319752,-4.23538 c 0.406546,-0.19819 0.602712,-0.34621 0.746228,-0.56308 0.107084,-0.16182 0.219541,-0.29421 0.249906,-0.29421 0.03036,0 0.113667,-0.20835 0.185119,-0.46301 0.247238,-0.88115 0.03977,-1.62908 -0.640269,-2.30824 -1.008117,-1.00682 -2.872005,-0.65528 -3.449668,0.65062 -0.0822,0.18582 -0.149449,0.39914 -0.149449,0.47404 0,0.0749 -0.03378,0.15706 -0.07508,0.18258 -0.09369,0.0579 -0.09836,0.52051 -0.007,0.69548 0.03743,0.0717 0.108223,0.2824 0.157324,0.46822 0.114436,0.43307 0.748583,1.07453 1.194284,1.20807 0.168919,0.0506 0.307124,0.12045 0.307124,0.15521 0,0.0348 0.209245,0.0632 0.464989,0.0632 0.380703,0 0.564958,-0.0487 1.016518,-0.26887 z"
       id="path963" />
    <path
       style="color:#000000;overflow:visible;fill:#aaaaaa;fill-opacity:1;fill-rule:evenodd;stroke:none;stroke-width:0.0840224;paint-order:stroke markers fill;stop-color:#000000"
       d="m 19.628566,123.34451 c -0.32531,-0.069 -0.825852,-0.26468 -0.825852,-0.32295 0,-0.0155 0.123806,-0.069 0.275125,-0.11899 0.762805,-0.25175 2.255341,-1.58408 2.823964,-2.52084 0.362347,-0.59695 0.359632,-0.7242 -0.01862,-0.87278 -0.294024,-0.1155 -0.296627,-0.11993 -0.194259,-0.33047 0.05707,-0.11737 0.133594,-0.45227 0.170057,-0.74423 l 0.0663,-0.53082 -0.758103,-0.0847 c -1.094036,-0.12225 -2.364462,-0.49586 -2.364462,-0.69534 0,-0.0584 0.900233,-0.37483 1.063598,-0.37384 0.06882,4.2e-4 0.136391,-0.0326 0.150155,-0.0734 0.02425,-0.0719 1.328365,-0.29987 1.720471,-0.30076 0.190792,-4.2e-4 0.193018,-0.007 0.138999,-0.3946 -0.0732,-0.52554 -0.149873,-0.82429 -0.24133,-0.94028 -0.09023,-0.11445 -0.07915,-0.12631 0.203381,-0.21761 0.341942,-0.11051 0.395172,-0.26014 0.22614,-0.63569 -0.283317,-0.62947 -1.466031,-2.0166 -1.719416,-2.0166 -0.04367,0 -0.122029,-0.0682 -0.174123,-0.15167 -0.08729,-0.13978 -1.109299,-0.67418 -1.289326,-0.67418 -0.0432,0 -0.07855,-0.0328 -0.07855,-0.073 0,-0.10635 0.687447,-0.28526 1.464011,-0.38102 1.109123,-0.13676 2.555637,0.0562 3.322177,0.44309 0.175494,0.0886 0.462665,0.23341 0.638159,0.32184 0.294321,0.1483 0.68497,0.43595 1.194946,0.87989 0.112006,0.0975 0.345824,0.35545 0.519594,0.57322 0.305757,0.38318 0.325877,0.39468 0.623943,0.3569 0.169398,-0.0215 0.355427,-0.0767 0.413396,-0.12276 0.148211,-0.11771 4.822464,-0.11711 4.969568,6.4e-4 0.05796,0.0464 0.39255,0.1245 0.743537,0.17357 1.083247,0.15146 2.098662,0.37806 2.387316,0.53277 0.15164,0.0813 0.319507,0.14778 0.373037,0.14778 0.370429,0 2.107412,0.78756 2.92431,1.3259 0.696064,0.45872 1.670819,1.22879 1.794687,1.41784 0.158994,0.24266 0.07615,0.36557 -0.662945,0.98351 -0.818988,0.68475 -1.073253,0.86494 -1.523445,1.07967 -0.206463,0.0985 -0.491164,0.25742 -0.63267,0.35321 -0.141505,0.0958 -0.344214,0.19563 -0.450464,0.22185 -0.10625,0.0262 -0.406941,0.1462 -0.668203,0.26661 -0.475106,0.21898 -0.791703,0.31898 -1.777303,0.56136 -0.289048,0.0711 -0.542435,0.15121 -0.563081,0.17806 -0.02065,0.0268 -0.544312,0.12869 -1.163701,0.2263 -0.988936,0.15585 -1.38689,0.17759 -3.265869,0.17839 -1.462176,5.3e-4 -2.311445,-0.0307 -2.682069,-0.0989 l -0.542361,-0.0998 -0.187272,0.21292 c -0.102999,0.1171 -0.188339,0.24754 -0.189644,0.28986 -0.0034,0.11168 -0.613881,0.66924 -0.991807,0.90588 -0.178431,0.11174 -0.415647,0.279 -0.527147,0.37171 -0.111499,0.0927 -0.449348,0.26147 -0.750774,0.37502 -0.301427,0.11355 -0.581834,0.23227 -0.623127,0.26382 -0.266347,0.20356 -2.57535,0.29598 -3.340947,0.13373 z m 14.319752,-4.23538 c 0.406546,-0.19819 0.602712,-0.34621 0.746228,-0.56308 0.107084,-0.16182 0.219541,-0.29421 0.249906,-0.29421 0.03036,0 0.113667,-0.20835 0.185119,-0.46301 0.247238,-0.88115 0.03977,-1.62908 -0.640269,-2.30824 -1.008117,-1.00682 -2.872005,-0.65528 -3.449668,0.65062 -0.0822,0.18582 -0.149449,0.39914 -0.149449,0.47404 0,0.0749 -0.03378,0.15706 -0.07508,0.18258 -0.09369,0.0579 -0.09836,0.52051 -0.007,0.69548 0.03743,0.0717 0.108223,0.2824 0.157324,0.46822 0.114436,0.43307 0.748583,1.07453 1.194284,1.20807 0.168919,0.0506 0.307124,0.12045 0.307124,0.15521 0,0.0348 0.209245,0.0632 0.464989,0.0632 0.380703,0 0.564958,-0.0487 1.016518,-0.26887 z"
       id="path969" />
    <path
       style="color:#000000;overflow:visible;fill:#555555;fill-opacity:1;fill-rule:evenodd;stroke:none;stroke-width:0.0840224;paint-order:stroke markers fill;stop-color:#000000"
       d="m 19.497187,123.15681 c -0.32531,-0.069 -0.825852,-0.26468 -0.825852,-0.32295 0,-0.0155 0.123806,-0.069 0.275125,-0.11899 0.762805,-0.25175 2.255341,-1.58408 2.823964,-2.52084 0.362347,-0.59695 0.359632,-0.7242 -0.01862,-0.87278 -0.294024,-0.1155 -0.296627,-0.11993 -0.194259,-0.33047 0.05707,-0.11737 0.133594,-0.45227 0.170057,-0.74423 l 0.0663,-0.53082 -0.758103,-0.0847 c -1.094036,-0.12225 -2.364462,-0.49586 -2.364462,-0.69534 0,-0.0584 0.900233,-0.37483 1.063598,-0.37384 0.06882,4.2e-4 0.136391,-0.0326 0.150155,-0.0734 0.02425,-0.0719 1.328365,-0.29987 1.720471,-0.30076 0.190792,-4.2e-4 0.193018,-0.007 0.138999,-0.3946 -0.0732,-0.52554 -0.149873,-0.82429 -0.24133,-0.94028 -0.09023,-0.11445 -0.07915,-0.12631 0.203381,-0.21761 0.341942,-0.11051 0.395172,-0.26014 0.22614,-0.63569 -0.283317,-0.62947 -1.466031,-2.0166 -1.719416,-2.0166 -0.04367,0 -0.122029,-0.0682 -0.174123,-0.15167 -0.08729,-0.13978 -1.109299,-0.67418 -1.289326,-0.67418 -0.0432,0 -0.07855,-0.0328 -0.07855,-0.073 0,-0.10635 0.687447,-0.28526 1.464011,-0.38102 1.109123,-0.13676 2.555637,0.0562 3.322177,0.44309 0.175494,0.0886 0.462665,0.23341 0.638159,0.32184 0.294321,0.1483 0.68497,0.43595 1.194946,0.87989 0.112006,0.0975 0.345824,0.35545 0.519594,0.57322 0.305757,0.38318 0.325877,0.39468 0.623943,0.3569 0.169398,-0.0215 0.355427,-0.0767 0.413396,-0.12276 0.148211,-0.11771 4.822464,-0.11711 4.969568,6.4e-4 0.05796,0.0464 0.39255,0.1245 0.743537,0.17357 1.083247,0.15146 2.098662,0.37806 2.387316,0.53277 0.15164,0.0813 0.319507,0.14778 0.373037,0.14778 0.370429,0 2.107412,0.78756 2.92431,1.3259 0.696064,0.45872 1.670819,1.22879 1.794687,1.41784 0.158994,0.24266 0.07615,0.36557 -0.662945,0.98351 -0.818988,0.68475 -1.073253,0.86494 -1.523445,1.07967 -0.206463,0.0985 -0.491164,0.25742 -0.63267,0.35321 -0.141505,0.0958 -0.344214,0.19563 -0.450464,0.22185 -0.10625,0.0262 -0.406941,0.1462 -0.668203,0.26661 -0.475106,0.21898 -0.791703,0.31898 -1.777303,0.56136 -0.289048,0.0711 -0.542435,0.15121 -0.563081,0.17806 -0.02065,0.0268 -0.544312,0.12869 -1.163701,0.2263 -0.988936,0.15585 -1.38689,0.17759 -3.265869,0.17839 -1.462176,5.3e-4 -2.311445,-0.0307 -2.682069,-0.0989 l -0.542361,-0.0998 -0.187272,0.21292 c -0.102999,0.1171 -0.188339,0.24754 -0.189644,0.28986 -0.0034,0.11168 -0.613881,0.66924 -0.991807,0.90588 -0.178431,0.11174 -0.415647,0.279 -0.527147,0.37171 -0.111499,0.0927 -0.449348,0.26147 -0.750774,0.37502 -0.301427,0.11355 -0.581834,0.23227 -0.623127,0.26382 -0.266347,0.20356 -2.57535,0.29598 -3.340947,0.13373 z m 14.319752,-4.23538 c 0.406546,-0.19819 0.602712,-0.34621 0.746228,-0.56308 0.107084,-0.16182 0.219541,-0.29421 0.249906,-0.29421 0.03036,0 0.113667,-0.20835 0.185119,-0.46301 0.247238,-0.88115 0.03977,-1.62908 -0.640269,-2.30824 -1.008117,-1.00682 -2.872005,-0.65528 -3.449668,0.65062 -0.0822,0.18582 -0.149449,0.39914 -0.149449,0.47404 0,0.0749 -0.03378,0.15706 -0.07508,0.18258 -0.09369,0.0579 -0.09836,0.52051 -0.007,0.69548 0.03743,0.0717 0.108223,0.2824 0.157324,0.46822 0.114436,0.43307 0.748583,1.07453 1.194284,1.20807 0.168919,0.0506 0.307124,0.12045 0.307124,0.15521 0,0.0348 0.209245,0.0632 0.464989,0.0632 0.380703,0 0.564958,-0.0487 1.016518,-0.26887 z"
       id="path967" />
    <path
       style="color:#000000;overflow:visible;fill:#f4d7d7;fill-opacity:1;fill-rule:evenodd;stroke:none;stroke-width:0.0840224;paint-order:stroke markers fill;stop-color:#000000"
       d="m 71.163291,110.92994 c 0.32531,0.069 0.825852,0.26468 0.825852,0.32295 0,0.0155 -0.123806,0.069 -0.275125,0.11899 -0.762805,0.25175 -2.255341,1.58408 -2.823964,2.52084 -0.362347,0.59695 -0.359632,0.7242 0.01862,0.87278 0.294024,0.1155 0.296627,0.11993 0.194259,0.33047 -0.05707,0.11737 -0.133594,0.45227 -0.170057,0.74423 l -0.0663,0.53082 0.758103,0.0847 c 1.094036,0.12225 2.364462,0.49586 2.364462,0.69534 0,0.0584 -0.900233,0.37483 -1.063598,0.37384 -0.06882,-4.2e-4 -0.136391,0.0326 -0.150155,0.0734 -0.02425,0.0719 -1.328365,0.29987 -1.720471,0.30076 -0.190792,4.2e-4 -0.193018,0.007 -0.138999,0.3946 0.0732,0.52554 0.149873,0.82429 0.24133,0.94028 0.09023,0.11445 0.07915,0.12631 -0.203381,0.21761 -0.341942,0.11051 -0.395172,0.26014 -0.22614,0.63569 0.283317,0.62947 1.466031,2.0166 1.719416,2.0166 0.04367,0 0.122029,0.0682 0.174123,0.15167 0.08729,0.13978 1.109299,0.67418 1.289326,0.67418 0.0432,0 0.07855,0.0328 0.07855,0.073 0,0.10635 -0.687447,0.28526 -1.464011,0.38102 -1.109123,0.13676 -2.555637,-0.0562 -3.322177,-0.44309 -0.175494,-0.0886 -0.462665,-0.23341 -0.638159,-0.32184 -0.294321,-0.1483 -0.68497,-0.43595 -1.194946,-0.87989 -0.112006,-0.0975 -0.345824,-0.35545 -0.519594,-0.57322 -0.305757,-0.38318 -0.325877,-0.39468 -0.623943,-0.3569 -0.169398,0.0215 -0.355427,0.0767 -0.413396,0.12276 -0.148211,0.11771 -4.822464,0.11711 -4.969568,-6.4e-4 -0.05796,-0.0464 -0.39255,-0.1245 -0.743537,-0.17357 -1.083247,-0.15146 -2.098662,-0.37806 -2.387316,-0.53277 -0.15164,-0.0813 -0.319507,-0.14778 -0.373037,-0.14778 -0.370429,0 -2.107412,-0.78756 -2.92431,-1.3259 -0.696064,-0.45872 -1.670819,-1.22879 -1.794687,-1.41784 -0.158994,-0.24266 -0.07615,-0.36557 0.662945,-0.98351 0.818988,-0.68475 1.073253,-0.86494 1.523445,-1.07967 0.206463,-0.0985 0.491164,-0.25742 0.63267,-0.35321 0.141505,-0.0958 0.344214,-0.19563 0.450464,-0.22185 0.10625,-0.0262 0.406941,-0.1462 0.668203,-0.26661 0.475106,-0.21898 0.791703,-0.31898 1.777303,-0.56136 0.289048,-0.0711 0.542435,-0.15121 0.563081,-0.17806 0.02065,-0.0268 0.544312,-0.12869 1.163701,-0.2263 0.988936,-0.15585 1.38689,-0.17759 3.265869,-0.17839 1.462176,-5.3e-4 2.311445,0.0307 2.682069,0.0989 l 0.542361,0.0998 0.187272,-0.21292 c 0.102999,-0.1171 0.188339,-0.24754 0.189644,-0.28986 0.0034,-0.11168 0.613881,-0.66924 0.991807,-0.90588 0.178431,-0.11174 0.415647,-0.279 0.527147,-0.37171 0.111499,-0.0927 0.449348,-0.26147 0.750774,-0.37502 0.301427,-0.11355 0.581834,-0.23227 0.623127,-0.26382 0.266347,-0.20356 2.57535,-0.29598 3.340947,-0.13373 z m -14.319752,4.23538 c -0.406546,0.19819 -0.602712,0.34621 -0.746228,0.56308 -0.107084,0.16182 -0.219541,0.29421 -0.249906,0.29421 -0.03036,0 -0.113667,0.20835 -0.185119,0.46301 -0.247238,0.88115 -0.03977,1.62908 0.640269,2.30824 1.008117,1.00682 2.872005,0.65528 3.449668,-0.65062 0.0822,-0.18582 0.149449,-0.39914 0.149449,-0.47404 0,-0.0749 0.03378,-0.15706 0.07508,-0.18258 0.09369,-0.0579 0.09836,-0.52051 0.007,-0.69548 -0.03743,-0.0717 -0.108223,-0.2824 -0.157324,-0.46822 -0.114436,-0.43307 -0.748583,-1.07453 -1.194284,-1.20807 -0.168919,-0.0506 -0.307124,-0.12045 -0.307124,-0.15521 0,-0.0348 -0.209245,-0.0632 -0.464989,-0.0632 -0.380703,0 -0.564958,0.0487 -1.016518,0.26887 z"
       id="path1035" />
    <path
       style="color:#000000;overflow:visible;fill:#aaaaaa;fill-opacity:1;fill-rule:evenodd;stroke:none;stroke-width:0.0840224;paint-order:stroke markers fill;stop-color:#000000"
       d="m 70.881753,110.64839 c 0.32531,0.069 0.825852,0.26468 0.825852,0.32295 0,0.0155 -0.123806,0.069 -0.275125,0.11899 -0.762805,0.25175 -2.255341,1.58408 -2.823964,2.52084 -0.362347,0.59695 -0.359632,0.7242 0.01862,0.87278 0.294024,0.1155 0.296627,0.11993 0.194259,0.33047 -0.05707,0.11737 -0.133594,0.45227 -0.170057,0.74423 l -0.0663,0.53082 0.758103,0.0847 c 1.094036,0.12225 2.364462,0.49586 2.364462,0.69534 0,0.0584 -0.900233,0.37483 -1.063598,0.37384 -0.06882,-4.2e-4 -0.136391,0.0326 -0.150155,0.0734 -0.02425,0.0719 -1.328365,0.29987 -1.720471,0.30076 -0.190792,4.2e-4 -0.193018,0.007 -0.138999,0.3946 0.0732,0.52554 0.149873,0.82429 0.24133,0.94028 0.09023,0.11445 0.07915,0.12631 -0.203381,0.21761 -0.341942,0.11051 -0.395172,0.26014 -0.22614,0.63569 0.283317,0.62947 1.466031,2.0166 1.719416,2.0166 0.04367,0 0.122029,0.0682 0.174123,0.15167 0.08729,0.13978 1.109299,0.67418 1.289326,0.67418 0.0432,0 0.07855,0.0328 0.07855,0.073 0,0.10635 -0.687447,0.28526 -1.464011,0.38102 -1.109123,0.13676 -2.555637,-0.0562 -3.322177,-0.44309 -0.175494,-0.0886 -0.462665,-0.23341 -0.638159,-0.32184 -0.294321,-0.1483 -0.68497,-0.43595 -1.194946,-0.87989 -0.112006,-0.0975 -0.345824,-0.35545 -0.519594,-0.57322 -0.305757,-0.38318 -0.325877,-0.39468 -0.623943,-0.3569 -0.169398,0.0215 -0.355427,0.0767 -0.413396,0.12276 -0.148211,0.11771 -4.822464,0.11711 -4.969568,-6.4e-4 -0.05796,-0.0464 -0.39255,-0.1245 -0.743537,-0.17357 -1.083247,-0.15146 -2.098662,-0.37806 -2.387316,-0.53277 -0.15164,-0.0813 -0.319507,-0.14778 -0.373037,-0.14778 -0.370429,0 -2.107412,-0.78756 -2.92431,-1.3259 -0.696064,-0.45872 -1.670819,-1.22879 -1.794687,-1.41784 -0.158994,-0.24266 -0.07615,-0.36557 0.662945,-0.98351 0.818988,-0.68475 1.073253,-0.86494 1.523445,-1.07967 0.206463,-0.0985 0.491164,-0.25742 0.63267,-0.35321 0.141505,-0.0958 0.344214,-0.19563 0.450464,-0.22185 0.10625,-0.0262 0.406941,-0.1462 0.668203,-0.26661 0.475106,-0.21898 0.791703,-0.31898 1.777303,-0.56136 0.289048,-0.0711 0.542435,-0.15121 0.563081,-0.17806 0.02065,-0.0268 0.544312,-0.12869 1.163701,-0.2263 0.988936,-0.15585 1.38689,-0.17759 3.265869,-0.17839 1.462176,-5.3e-4 2.311445,0.0307 2.682069,0.0989 l 0.542361,0.0998 0.187272,-0.21292 c 0.102999,-0.1171 0.188339,-0.24754 0.189644,-0.28986 0.0034,-0.11168 0.613881,-0.66924 0.991807,-0.90588 0.178431,-0.11174 0.415647,-0.279 0.527147,-0.37171 0.111499,-0.0927 0.449348,-0.26147 0.750774,-0.37502 0.301427,-0.11355 0.581834,-0.23227 0.623127,-0.26382 0.266347,-0.20356 2.57535,-0.29598 3.340947,-0.13373 z m -14.319752,4.23538 c -0.406546,0.19819 -0.602712,0.34621 -0.746228,0.56308 -0.107084,0.16182 -0.219541,0.29421 -0.249906,0.29421 -0.03036,0 -0.113667,0.20835 -0.185119,0.46301 -0.247238,0.88115 -0.03977,1.62908 0.640269,2.30824 1.008117,1.00682 2.872005,0.65528 3.449668,-0.65062 0.0822,-0.18582 0.149449,-0.39914 0.149449,-0.47404 0,-0.0749 0.03378,-0.15706 0.07508,-0.18258 0.09369,-0.0579 0.09836,-0.52051 0.007,-0.69548 -0.03743,-0.0717 -0.108223,-0.2824 -0.157324,-0.46822 -0.114436,-0.43307 -0.748583,-1.07453 -1.194284,-1.20807 -0.168919,-0.0506 -0.307124,-0.12045 -0.307124,-0.15521 0,-0.0348 -0.209245,-0.0632 -0.464989,-0.0632 -0.380703,0 -0.564958,0.0487 -1.016518,0.26887 z"
       id="path1037" />
    <path
       style="color:#000000;overflow:visible;fill:#555555;fill-opacity:1;fill-rule:evenodd;stroke:none;stroke-width:0.0840224;paint-order:stroke markers fill;stop-color:#000000"
       d="m 71.013132,110.83609 c 0.32531,0.069 0.825852,0.26468 0.825852,0.32295 0,0.0155 -0.123806,0.069 -0.275125,0.11899 -0.762805,0.25175 -2.255341,1.58408 -2.823964,2.52084 -0.362347,0.59695 -0.359632,0.7242 0.01862,0.87278 0.294024,0.1155 0.296627,0.11993 0.194259,0.33047 -0.05707,0.11737 -0.133594,0.45227 -0.170057,0.74423 l -0.0663,0.53082 0.758103,0.0847 c 1.094036,0.12225 2.364462,0.49586 2.364462,0.69534 0,0.0584 -0.900233,0.37483 -1.063598,0.37384 -0.06882,-4.2e-4 -0.136391,0.0326 -0.150155,0.0734 -0.02425,0.0719 -1.328365,0.29987 -1.720471,0.30076 -0.190792,4.2e-4 -0.193018,0.007 -0.138999,0.3946 0.0732,0.52554 0.149873,0.82429 0.24133,0.94028 0.09023,0.11445 0.07915,0.12631 -0.203381,0.21761 -0.341942,0.11051 -0.395172,0.26014 -0.22614,0.63569 0.283317,0.62947 1.466031,2.0166 1.719416,2.0166 0.04367,0 0.122029,0.0682 0.174123,0.15167 0.08729,0.13978 1.109299,0.67418 1.289326,0.67418 0.0432,0 0.07855,0.0328 0.07855,0.073 0,0.10635 -0.687447,0.28526 -1.464011,0.38102 -1.109123,0.13676 -2.555637,-0.0562 -3.322177,-0.44309 -0.175494,-0.0886 -0.462665,-0.23341 -0.638159,-0.32184 -0.294321,-0.1483 -0.68497,-0.43595 -1.194946,-0.87989 -0.112006,-0.0975 -0.345824,-0.35545 -0.519594,-0.57322 -0.305757,-0.38318 -0.325877,-0.39468 -0.623943,-0.3569 -0.169398,0.0215 -0.355427,0.0767 -0.413396,0.12276 -0.148211,0.11771 -4.822464,0.11711 -4.969568,-6.4e-4 -0.05796,-0.0464 -0.39255,-0.1245 -0.743537,-0.17357 -1.083247,-0.15146 -2.098662,-0.37806 -2.387316,-0.53277 -0.15164,-0.0813 -0.319507,-0.14778 -0.373037,-0.14778 -0.370429,0 -2.107412,-0.78756 -2.92431,-1.3259 -0.696064,-0.45872 -1.670819,-1.22879 -1.794687,-1.41784 -0.158994,-0.24266 -0.07615,-0.36557 0.662945,-0.98351 0.818988,-0.68475 1.073253,-0.86494 1.523445,-1.07967 0.206463,-0.0985 0.491164,-0.25742 0.63267,-0.35321 0.141505,-0.0958 0.344214,-0.19563 0.450464,-0.22185 0.10625,-0.0262 0.406941,-0.1462 0.668203,-0.26661 0.475106,-0.21898 0.791703,-0.31898 1.777303,-0.56136 0.289048,-0.0711 0.542435,-0.15121 0.563081,-0.17806 0.02065,-0.0268 0.544312,-0.12869 1.163701,-0.2263 0.988936,-0.15585 1.38689,-0.17759 3.265869,-0.17839 1.462176,-5.3e-4 2.311445,0.0307 2.682069,0.0989 l 0.542361,0.0998 0.187272,-0.21292 c 0.102999,-0.1171 0.188339,-0.24754 0.189644,-0.28986 0.0034,-0.11168 0.613881,-0.66924 0.991807,-0.90588 0.178431,-0.11174 0.415647,-0.279 0.527147,-0.37171 0.111499,-0.0927 0.449348,-0.26147 0.750774,-0.37502 0.301427,-0.11355 0.581834,-0.23227 0.623127,-0.26382 0.266347,-0.20356 2.57535,-0.29598 3.340947,-0.13373 z m -14.319752,4.23538 c -0.406546,0.19819 -0.602712,0.34621 -0.746228,0.56308 -0.107084,0.16182 -0.219541,0.29421 -0.249906,0.29421 -0.03036,0 -0.113667,0.20835 -0.185119,0.46301 -0.247238,0.88115 -0.03977,1.62908 0.640269,2.30824 1.008117,1.00682 2.872005,0.65528 3.449668,-0.65062 0.0822,-0.18582 0.149449,-0.39914 0.149449,-0.47404 0,-0.0749 0.03378,-0.15706 0.07508,-0.18258 0.09369,-0.0579 0.09836,-0.52051 0.007,-0.69548 -0.03743,-0.0717 -0.108223,-0.2824 -0.157324,-0.46822 -0.114436,-0.43307 -0.748583,-1.07453 -1.194284,-1.20807 -0.168919,-0.0506 -0.307124,-0.12045 -0.307124,-0.15521 0,-0.0348 -0.209245,-0.0632 -0.464989,-0.0632 -0.380703,0 -0.564958,0.0487 -1.016518,0.26887 z"
       id="path1039" />
  </g>
</svg>
